<svg xmlns="http://www.w3.org/2000/svg">


    <symbol id="back" viewBox="0 0 12.3 11.5">
        <path d="M11.4,4.3H4.9l2.1-2.1C7.2,2,6.9,1.4,6.3,0.8C5.7,0.2,5.1-0.1,4.9,0L0.6,4.4C0.3,4.6,0,5.1,0,5.8
            c0,0.7,0.3,1.3,0.7,1.5l4.3,4.3c0.2,0.2,0.8-0.2,1.4-0.8c0.6-0.6,0.9-1.2,0.8-1.4L5,7.3h6.4c0.5,0,0.9-0.7,0.9-1.5
            S11.9,4.3,11.4,4.3z"/>
    </symbol>


    <symbol id="forward" viewBox="0 0 12.3 11.5">
        <path d="M0.9,4.3h6.5L5.2,2.2C5.1,2,5.4,1.4,6,0.8C6.6,0.2,7.2-0.1,7.4,0l4.3,4.3c0.4,0.2,0.6,0.8,0.6,1.4
            c0,0.7-0.3,1.3-0.7,1.5l-4.3,4.3c-0.2,0.2-0.8-0.2-1.4-0.8c-0.6-0.6-0.9-1.2-0.8-1.4l2.1-2.1H0.9C0.4,7.3,0,6.6,0,5.8
            S0.4,4.3,0.9,4.3z"/>
    </symbol>


    <symbol id="refresh" viewBox="0 0 13.9 14.7">
        <path d="M13.9,6.6L13.9,0l-2.2,2.3c-0.9-0.8-2.1-1.4-3.3-1.6C4.6-0.1,0.9,2.4,0.1,6.3c-0.7,3.8,1.8,7.5,5.6,8.3
            c0.4,0.1,0.9,0.1,1.3,0.1c2.5,0,4.8-1.3,6.1-3.5l-2.8-1.6c-0.8,1.4-2.4,2.1-4,1.8c-1-0.2-1.9-0.8-2.4-1.6S3.1,7.9,3.3,6.9
            c0.4-2.1,2.4-3.4,4.5-3C8.4,4,9,4.2,9.5,4.6L7.3,6.6H13.9z"/>
    </symbol>


    <symbol id="menu" viewBox="0 0 14 13">
        <g>
            <path d="M14,1.5C14,2.3,13.6,3,13.1,3H0.9C0.4,3,0,2.3,0,1.5l0,0C0,0.7,0.4,0,0.9,0h12.3C13.6,0,14,0.7,14,1.5
                L14,1.5z"/>
            <path d="M14,6.5C14,7.3,13.6,8,13.1,8H0.9C0.4,8,0,7.3,0,6.5l0,0C0,5.7,0.4,5,0.9,5h12.3C13.6,5,14,5.7,14,6.5
                L14,6.5z"/>
            <path d="M14,11.5c0,0.8-0.4,1.5-0.9,1.5H0.9C0.4,13,0,12.3,0,11.5l0,0C0,10.7,0.4,10,0.9,10h12.3
                C13.6,10,14,10.7,14,11.5L14,11.5z"/>
        </g>
    </symbol>


    <symbol id="new-tab" viewBox="0 0 13.8 13.8">
        <path d="M12.9,5.3H8.5V0.9C8.5,0.4,7.6,0,6.9,0S5.3,0.4,5.3,0.9v4.4H0.9C0.4,5.3,0,6.2,0,6.9c0,0.7,0.4,1.6,0.9,1.6
	h4.4v4.4c0,0.5,0.9,0.9,1.6,0.9s1.6-0.4,1.6-0.9V8.5h4.4c0.5,0,0.9-0.9,0.9-1.6C13.8,6.2,13.4,5.3,12.9,5.3z"/>
    </symbol>


</svg>
